<?xml version="1.0" encoding="UTF-8" standalone="no"?>
<!DOCTYPE svg PUBLIC "-//W3C//DTD SVG 20010904//EN"
              "http://www.w3.org/TR/2001/REC-SVG-20010904/DTD/svg10.dtd">

<svg xmlns="http://www.w3.org/2000/svg"
     width="24in" height="3.66667in"
     viewBox="0 0 7200 1100">
  <path id="Swirl"
        fill="#58aee8"
        d="M 554.00,541.00
           C 620.67,566.33 713.00,558.00 760.00,518.00
             817.00,478.00 842.00,403.00 795.33,312.00
             735.33,235.33 648.00,266.00 629.33,287.33
             572.67,359.33 622.00,408.67 665.33,400.67
             693.33,395.33 680.67,325.33 680.67,325.33
             680.67,325.33 747.33,318.67 753.33,401.33
             735.33,551.33 441.33,477.33 531.33,272.00
             598.67,185.33 696.00,154.00 804.00,204.67
             860.00,244.67 914.00,282.67 916.67,384.00
             912.00,476.67 878.00,565.33 745.33,605.33
             564.00,627.00 553.00,558.00 554.00,541.00 Z" />
  <path id="Magnifying Glass"
        fill="#919191"
        d="M 431.64,619.45
           C 431.64,619.45 349.27,700.36 349.27,700.36
             349.27,700.36 341.27,690.91 323.09,690.73
             304.91,690.55 295.82,702.36 295.82,702.36
             295.82,702.36 55.45,942.18 55.45,942.18
             55.45,942.18 52.18,944.73 52.36,950.91
             52.55,957.09 55.45,959.45 55.45,959.45
             55.45,959.45 144.13,1047.22 144.13,1047.22
             144.13,1047.22 145.48,1049.22 152.74,1049.30
             160.00,1049.39 161.96,1047.87 161.96,1047.87
             161.96,1047.87 405.38,802.88 405.38,802.88
             405.38,802.88 412.50,798.75 412.50,780.88
             412.50,763.00 402.38,754.50 402.38,754.50
             402.38,754.50 484.25,671.38 484.25,671.38
             594.00,755.00 783.00,797.00 945.00,645.62
             1118.00,465.00 1034.00,266.00 971.00,179.00
             901.00,98.00 698.00,-28.00 491.33,122.67
             300.00,279.00 333.00,499.00 431.64,619.45 Z
           M 510.75,596.00
           C 391.00,477.50 406.00,287.00 529.48,187.43
             647.00,96.00 812.00,109.00 911.98,227.64
             1002.48,340.64 983.50,498.50 898.00,586.00
             812.50,682.50 641.00,714.00 510.75,596.00 Z" />
  <path id="HSLookup.net"
        fill="#fffafa"
        d="M 1046.00,124.00M 1816.44,872.00
           C 1816.44,872.00 1674.05,872.00 1674.05,872.00
             1674.05,872.00 1674.05,615.36 1674.05,615.36
             1674.05,615.36 1413.02,615.36 1413.02,615.36
             1413.02,615.36 1413.02,872.00 1413.02,872.00
             1413.02,872.00 1271.08,872.00 1271.08,872.00
             1271.08,872.00 1271.08,241.83 1271.08,241.83
             1271.08,241.83 1413.02,241.83 1413.02,241.83
             1413.02,241.83 1413.02,493.19 1413.02,493.19
             1413.02,493.19 1674.05,493.19 1674.05,493.19
             1674.05,493.19 1674.05,241.83 1674.05,241.83
             1674.05,241.83 1816.44,241.83 1816.44,241.83
             1816.44,241.83 1816.44,872.00 1816.44,872.00 Z
           M 1912.06,847.83
           C 1912.06,847.83 1912.06,707.20 1912.06,707.20
             1937.55,728.59 1965.24,744.63 1995.12,755.33
             2025.01,766.02 2055.19,771.36 2085.66,771.36
             2103.52,771.36 2119.12,769.75 2132.45,766.53
             2145.79,763.31 2156.91,758.85 2165.84,753.14
             2174.78,747.42 2181.45,740.68 2185.84,732.92
             2190.24,725.15 2192.44,716.73 2192.44,707.64
             2192.44,695.34 2188.92,684.36 2181.89,674.69
             2174.86,665.02 2165.27,656.09 2153.11,647.89
             2140.95,639.68 2126.52,631.77 2109.81,624.16
             2093.11,616.53 2075.10,608.77 2055.77,600.86
             2006.55,580.35 1969.85,555.30 1945.69,525.72
             1921.52,496.12 1909.44,460.38 1909.44,418.48
             1909.44,385.67 1916.02,357.48 1929.20,333.89
             1942.39,310.31 1960.33,290.90 1983.03,275.67
             2005.74,260.43 2032.04,249.23 2061.92,242.05
             2091.80,234.87 2123.45,231.28 2156.84,231.28
             2189.66,231.28 2218.73,233.26 2244.08,237.22
             2269.42,241.17 2292.79,247.25 2314.17,255.45
             2314.17,255.45 2314.17,386.84 2314.17,386.84
             2303.62,379.52 2292.12,373.08 2279.67,367.52
             2267.22,361.95 2254.41,357.33 2241.22,353.67
             2228.03,350.01 2214.91,347.29 2201.88,345.53
             2188.84,343.77 2176.47,342.89 2164.75,342.89
             2148.63,342.89 2133.98,344.43 2120.80,347.52
             2107.62,350.59 2096.49,354.91 2087.41,360.48
             2078.32,366.05 2071.29,372.71 2066.31,380.47
             2061.33,388.23 2058.84,396.95 2058.84,406.62
             2058.84,417.17 2061.62,426.62 2067.19,434.97
             2072.76,443.31 2080.67,451.23 2090.92,458.70
             2101.18,466.17 2113.63,473.50 2128.28,480.67
             2142.93,487.85 2159.48,495.25 2177.94,502.86
             2203.13,513.40 2225.77,524.61 2245.83,536.48
             2265.90,548.35 2283.11,561.75 2297.47,576.69
             2311.82,591.62 2322.80,608.70 2330.42,627.89
             2338.05,647.08 2341.86,669.42 2341.86,694.91
             2341.86,730.06 2335.19,759.58 2321.86,783.45
             2308.52,807.33 2290.43,826.67 2267.58,841.47
             2244.73,856.26 2218.15,866.88 2187.83,873.31
             2157.50,879.76 2125.49,882.98 2091.80,882.98
             2057.23,882.98 2024.35,880.05 1993.14,874.19
             1961.94,868.34 1934.91,859.55 1912.06,847.83 Z
           M 2801.36,872.00
           C 2801.36,872.00 2426.08,872.00 2426.08,872.00
             2426.08,872.00 2426.08,241.83 2426.08,241.83
             2426.08,241.83 2568.02,241.83 2568.02,241.83
             2568.02,241.83 2568.02,756.86 2568.02,756.86
             2568.02,756.86 2801.36,756.86 2801.36,756.86
             2801.36,756.86 2801.36,872.00 2801.36,872.00 Z
           M 3066.91,882.98
           C 2991.91,882.98 2932.94,861.96 2890.02,819.92
             2847.10,777.88 2825.64,720.82 2825.64,648.75
             2825.64,574.34 2847.91,516.12 2892.44,474.08
             2936.97,432.04 2997.17,411.02 3073.05,411.02
             3147.75,411.02 3206.35,432.04 3248.83,474.08
             3291.32,516.12 3312.56,571.71 3312.56,640.84
             3312.56,715.55 3290.66,774.59 3246.86,817.95
             3203.05,861.31 3143.07,882.98 3066.91,882.98 Z
           M 3070.42,517.36
           C 3037.61,517.36 3012.12,528.64 2993.95,551.20
             2975.79,573.76 2966.70,605.69 2966.70,647.00
             2966.70,733.43 3001.57,776.64 3071.30,776.64
             3137.80,776.64 3171.05,732.26 3171.05,643.48
             3171.05,559.40 3137.50,517.36 3070.42,517.36 Z
           M 3596.91,882.98
           C 3521.91,882.98 3462.94,861.96 3420.02,819.92
             3377.10,777.88 3355.64,720.82 3355.64,648.75
             3355.64,574.34 3377.91,516.12 3422.44,474.08
             3466.97,432.04 3527.17,411.02 3603.05,411.02
             3677.75,411.02 3736.35,432.04 3778.83,474.08
             3821.32,516.12 3842.56,571.71 3842.56,640.84
             3842.56,715.55 3820.66,774.59 3776.86,817.95
             3733.05,861.31 3673.07,882.98 3596.91,882.98 Z
           M 3600.42,517.36
           C 3567.61,517.36 3542.12,528.64 3523.95,551.20
             3505.79,573.76 3496.70,605.69 3496.70,647.00
             3496.70,733.43 3531.57,776.64 3601.30,776.64
             3667.80,776.64 3701.05,732.26 3701.05,643.48
             3701.05,559.40 3667.50,517.36 3600.42,517.36 Z
           M 4363.33,872.00
           C 4363.33,872.00 4196.78,872.00 4196.78,872.00
             4196.78,872.00 4053.08,648.75 4053.08,648.75
             4053.08,648.75 4051.31,648.75 4051.31,648.75
             4051.31,648.75 4051.31,872.00 4051.31,872.00
             4051.31,872.00 3912.45,872.00 3912.45,872.00
             3912.45,872.00 3912.45,205.78 3912.45,205.78
             3912.45,205.78 4051.31,205.78 4051.31,205.78
             4051.31,205.78 4051.31,629.86 4051.31,629.86
             4051.31,629.86 4053.08,629.86 4053.08,629.86
             4053.08,629.86 4187.11,422.00 4187.11,422.00
             4187.11,422.00 4351.91,422.00 4351.91,422.00
             4351.91,422.00 4190.62,633.38 4190.62,633.38
             4190.62,633.38 4363.33,872.00 4363.33,872.00 Z
           M 4823.03,872.00
           C 4823.03,872.00 4684.61,872.00 4684.61,872.00
             4684.61,872.00 4684.61,803.44 4684.61,803.44
             4684.61,803.44 4682.41,803.44 4682.41,803.44
             4648.13,856.47 4602.29,882.98 4544.86,882.98
             4440.57,882.98 4388.42,819.85 4388.42,693.58
             4388.42,693.58 4388.42,422.00 4388.42,422.00
             4388.42,422.00 4526.84,422.00 4526.84,422.00
             4526.84,422.00 4526.84,681.28 4526.84,681.28
             4526.84,744.86 4552.04,776.64 4602.44,776.64
             4627.33,776.64 4647.25,767.93 4662.19,750.50
             4677.13,733.06 4684.61,709.40 4684.61,679.52
             4684.61,679.52 4684.61,422.00 4684.61,422.00
             4684.61,422.00 4823.03,422.00 4823.03,422.00
             4823.03,422.00 4823.03,872.00 4823.03,872.00 Z
           M 5060.08,819.70
           C 5060.08,819.70 5058.31,819.70 5058.31,819.70
             5058.31,819.70 5058.31,1078.98 5058.31,1078.98
             5058.31,1078.98 4919.45,1078.98 4919.45,1078.98
             4919.45,1078.98 4919.45,422.00 4919.45,422.00
             4919.45,422.00 5058.31,422.00 5058.31,422.00
             5058.31,422.00 5058.31,489.67 5058.31,489.67
             5058.31,489.67 5060.08,489.67 5060.08,489.67
             5094.35,437.23 5142.54,411.02 5204.66,411.02
             5262.96,411.02 5308.00,431.01 5339.78,471.00
             5371.57,510.99 5387.47,565.41 5387.47,634.25
             5387.47,709.25 5368.94,769.46 5331.88,814.88
             5294.81,860.28 5245.52,882.98 5184.00,882.98
             5129.80,882.98 5088.49,861.89 5060.08,819.70 Z
           M 5056.12,635.14
           C 5056.12,635.14 5056.12,671.17 5056.12,671.17
             5056.12,702.23 5064.33,727.57 5080.73,747.20
             5097.14,766.83 5118.67,776.64 5145.33,776.64
             5176.96,776.64 5201.49,764.41 5218.92,739.95
             5236.36,715.48 5245.08,680.84 5245.08,636.02
             5245.08,556.91 5214.32,517.36 5152.80,517.36
             5124.38,517.36 5101.16,528.12 5083.14,549.66
             5065.13,571.19 5056.12,599.68 5056.12,635.14 Z
           M 5519.41,882.98
           C 5496.56,882.98 5477.52,875.95 5462.28,861.89
             5447.05,847.83 5439.44,830.54 5439.44,810.03
             5439.44,788.94 5447.27,771.66 5462.94,758.19
             5478.61,744.71 5498.17,737.97 5521.61,737.97
             5545.34,737.97 5564.74,744.78 5579.83,758.41
             5594.92,772.02 5602.47,789.23 5602.47,810.03
             5602.47,831.42 5594.77,848.92 5579.39,862.55
             5564.02,876.17 5544.02,882.98 5519.41,882.98 Z
           M 6116.06,872.00
           C 6116.06,872.00 5977.64,872.00 5977.64,872.00
             5977.64,872.00 5977.64,621.95 5977.64,621.95
             5977.64,552.23 5952.74,517.36 5902.94,517.36
             5878.91,517.36 5859.12,526.59 5843.59,545.05
             5828.07,563.51 5820.31,586.95 5820.31,615.36
             5820.31,615.36 5820.31,872.00 5820.31,872.00
             5820.31,872.00 5681.45,872.00 5681.45,872.00
             5681.45,872.00 5681.45,422.00 5681.45,422.00
             5681.45,422.00 5820.31,422.00 5820.31,422.00
             5820.31,422.00 5820.31,493.19 5820.31,493.19
             5820.31,493.19 5822.08,493.19 5822.08,493.19
             5855.18,438.41 5903.38,411.02 5966.66,411.02
             6066.26,411.02 6116.06,472.84 6116.06,596.47
             6116.06,596.47 6116.06,872.00 6116.06,872.00 Z
           M 6609.75,686.55
           C 6609.75,686.55 6316.19,686.55 6316.19,686.55
             6320.88,751.88 6362.04,784.55 6439.67,784.55
             6489.18,784.55 6532.69,772.83 6570.19,749.39
             6570.19,749.39 6570.19,849.59 6570.19,849.59
             6528.59,871.86 6474.54,882.98 6408.03,882.98
             6335.38,882.98 6278.98,862.84 6238.84,822.56
             6198.71,782.28 6178.64,726.11 6178.64,654.03
             6178.64,579.32 6200.32,520.15 6243.67,476.50
             6287.04,432.84 6340.36,411.02 6403.64,411.02
             6469.27,411.02 6520.02,430.50 6555.91,469.47
             6591.80,508.43 6609.75,561.31 6609.75,628.11
             6609.75,628.11 6609.75,686.55 6609.75,686.55 Z
           M 6480.98,601.30
           C 6480.98,536.84 6454.91,504.61 6402.77,504.61
             6380.49,504.61 6361.23,513.84 6344.97,532.30
             6328.71,550.76 6318.82,573.76 6315.31,601.30
             6315.31,601.30 6480.98,601.30 6480.98,601.30 Z
           M 6944.47,866.72
           C 6923.96,877.56 6893.05,882.98 6851.75,882.98
             6753.89,882.98 6704.97,832.16 6704.97,730.50
             6704.97,730.50 6704.97,524.39 6704.97,524.39
             6704.97,524.39 6632.02,524.39 6632.02,524.39
             6632.02,524.39 6632.02,422.00 6632.02,422.00
             6632.02,422.00 6704.97,422.00 6704.97,422.00
             6704.97,422.00 6704.97,324.88 6704.97,324.88
             6704.97,324.88 6843.39,285.33 6843.39,285.33
             6843.39,285.33 6843.39,422.00 6843.39,422.00
             6843.39,422.00 6944.47,422.00 6944.47,422.00
             6944.47,422.00 6944.47,524.39 6944.47,524.39
             6944.47,524.39 6843.39,524.39 6843.39,524.39
             6843.39,524.39 6843.39,706.33 6843.39,706.33
             6843.39,753.20 6861.99,776.64 6899.20,776.64
             6913.85,776.64 6928.94,772.39 6944.47,763.89
             6944.47,763.89 6944.47,866.72 6944.47,866.72 Z" />
</svg>
