<?xml version="1.0" encoding="UTF-8" standalone="no"?>
<!DOCTYPE svg PUBLIC "-//W3C//DTD SVG 20010904//EN"
              "http://www.w3.org/TR/2001/REC-SVG-20010904/DTD/svg10.dtd">

<svg xmlns="http://www.w3.org/2000/svg"
     width="3.33333in" height="3.33333in"
     viewBox="0 0 1000 1000">
  <path id="Swirl"
        fill="#58aee8"
        d="M 504.00,491.00
           C 570.67,516.33 663.00,508.00 710.00,468.00
             767.00,428.00 792.00,353.00 745.33,262.00
             685.33,185.33 598.00,216.00 579.33,237.33
             522.67,309.33 572.00,358.67 615.33,350.67
             643.33,345.33 630.67,275.33 630.67,275.33
             630.67,275.33 697.33,268.67 703.33,351.33
             685.33,501.33 391.33,427.33 481.33,222.00
             548.67,135.33 646.00,104.00 754.00,154.67
             810.00,194.67 864.00,232.67 866.67,334.00
             862.00,426.67 828.00,515.33 695.33,555.33
             514.00,577.00 503.00,508.00 504.00,491.00 Z" />
  <path id="Magnifying Glass"
        fill="#999999"
        d="M 381.64,569.45
           C 381.64,569.45 299.27,650.36 299.27,650.36
             299.27,650.36 291.27,640.91 273.09,640.73
             254.91,640.55 245.82,652.36 245.82,652.36
             245.82,652.36 5.45,892.18 5.45,892.18
             5.45,892.18 2.18,894.73 2.36,900.91
             2.55,907.09 5.45,909.45 5.45,909.45
             5.45,909.45 94.13,997.22 94.13,997.22
             94.13,997.22 95.48,999.22 102.74,999.30
             110.00,999.39 111.96,997.87 111.96,997.87
             111.96,997.87 355.38,752.88 355.38,752.88
             355.38,752.88 362.50,748.75 362.50,730.88
             362.50,713.00 352.38,704.50 352.38,704.50
             352.38,704.50 434.25,621.38 434.25,621.38
             544.00,705.00 733.00,747.00 895.00,595.62
             1068.00,415.00 984.00,216.00 921.00,129.00
             851.00,48.00 648.00,-78.00 441.33,72.67
             250.00,229.00 283.00,449.00 381.64,569.45 Z
           M 460.75,546.00
           C 341.00,427.50 356.00,237.00 479.48,137.43
             597.00,46.00 762.00,59.00 861.98,177.64
             952.48,290.64 933.50,448.50 848.00,536.00
             762.50,632.50 591.00,664.00 460.75,546.00 Z" />
</svg>
